<?xml version="1.0" encoding="utf-8"?>
<!-- Generator: Adobe Illustrator 16.0.0, SVG Export Plug-In . SVG Version: 6.00 Build 0)  -->
<!DOCTYPE svg PUBLIC "-//W3C//DTD SVG 1.1//EN" "http://www.w3.org/Graphics/SVG/1.1/DTD/svg11.dtd">
<svg version="1.1" id="katman_1" xmlns="http://www.w3.org/2000/svg" xmlns:xlink="http://www.w3.org/1999/xlink" x="0px" y="0px"
	 width="1000px" height="1000px" viewBox="0 0 1000 1000" enable-background="new 0 0 1000 1000" xml:space="preserve">
<g>
	<polygon fill="#199B4F" points="334.552,261.099 225.083,380.97 200,487.324 221.07,625.785 284.002,706.344 363.595,771.662 
		528.031,787.658 715.944,773.115 785.21,690.078 463.774,630.504 401.356,560.346 473.631,596.52 792.233,646.188 752.336,441.183 
		713.581,394.278 515.811,299.755 388.208,212.341 337.527,228.511 	"/>
	<polygon fill="#15723B" points="293.493,325.003 248.165,396.104 227.419,495.994 245.857,612.281 303.478,688.049 272.75,600.758 
		261.992,495.994 275.821,399.178 	"/>
	<polygon fill="#0B4422" points="396.287,526.127 365.818,558.434 446.678,656.285 770.18,708.098 789.453,697.889 784.766,673.865 
		467.771,627.574 413.279,568.26 472.459,603.553 787.546,652.771 800,636.363 786.359,616.004 483.006,572.496 	"/>
	<g>
		<path fill="#0B4422" d="M679.13,414.749c0-70.688-55.697-127.993-124.396-127.993c-68.719,0-124.414,57.306-124.414,127.993
			c0,70.685,55.695,127.984,124.414,127.984C623.433,542.732,679.13,485.434,679.13,414.749z"/>
		<path fill="#EAD227" d="M645.673,414.749c0-51.675-40.722-93.566-90.938-93.566c-50.231,0-90.96,41.892-90.96,93.566
			c0,51.672,40.729,93.56,90.96,93.56C604.951,508.309,645.673,466.42,645.673,414.749z"/>
		<path d="M595.442,414.749c0-23.146-18.231-41.903-40.708-41.903c-22.49,0-40.734,18.758-40.734,41.903
			c0,23.142,18.244,41.896,40.734,41.896C577.211,456.645,595.442,437.89,595.442,414.749z"/>
	</g>
</g>
</svg>
