<?xml version="1.0" encoding="utf-8"?>
<!-- Generator: Adobe Illustrator 16.0.0, SVG Export Plug-In . SVG Version: 6.00 Build 0)  -->
<!DOCTYPE svg PUBLIC "-//W3C//DTD SVG 1.1//EN" "http://www.w3.org/Graphics/SVG/1.1/DTD/svg11.dtd">
<svg version="1.1" id="katman_1" xmlns="http://www.w3.org/2000/svg" xmlns:xlink="http://www.w3.org/1999/xlink" x="0px" y="0px"
	 width="1000px" height="1000px" viewBox="0 0 1000 1000" enable-background="new 0 0 1000 1000" xml:space="preserve">
<g>
	<path fill="#199B4F" d="M961.052,523.704l0.078-0.537l-19.883-102.161l-19.313-23.375l-98.556-47.104l-22.999-15.86l-40.59-27.701
		l-25.256,8.058l-1.482,23.24l-15.001,14.036L572.627,299.44L412.31,277.429l-11.262,133.036l57.89-50.092l-68.745,80.259V277.558
		l-190.508,34.664l-109.011,80.98L35,502.92l8.176,109.084l58.398,85.65l87.208,24.917l80.709-35.175L283,627.577l-17.909-9.346
		l-37.336,39.049l-58.438-4.01l-26.219-55.392l10.376-67.437l21.11-31.305l13.81,52.463l44.047,21.031l93.685-53.287v-52.772
		l-45.793-30.126l25.62-22.046v-28.145l-40.171-37.432l49.533,31.922l3.804,38.968l-15.094,15.925l37.764,24.793l3.707,68.515
		l-53.733,43.687h98.431V520.93l33.907-35.517l46.944,87.219l76.178-0.32l-76.772-131.776l76.698-79.329l-57.416,79.887
		l67.724,107.775l20.654-187.662v211.065l105.595,43.235l12.345,20.246l-1.312,19.968l-6.507,9.667l10.833,14.214l14.078-10.648
		l-4.553-11.507l7.164-25.45l-3.115-8.047l11.5,9.944l4.846,19.416l-3.244,11.19l14.654,10.227l10.156-14.436l-7.849-9.568
		l-0.947-26.422l-7.619-9.432l10.264,2.714l12.881,15.314l2.003,12.645l17.656,1.587l2.782-17.431l-11.251-5.152l-12.457-23.319
		l-39.364-18.368l-68.958-62.402V385.809l15.29,125.75l84.544,74.135l81.944,7.973l93.644-7.248l34.518-41.38l-160.183-29.688
		l-31.104-34.962l36.017,18.026L961.052,523.704z M225.668,378.798l38.745,18.883l-38.745,18.881V378.798z M280.953,490.462
		l-55.285,28.615v-61.904L280.953,490.462z"/>
	<polygon fill="#15723B" points="712.591,363.11 690.002,398.542 679.664,448.32 688.853,506.271 717.566,544.027 702.254,500.528 
		696.893,448.32 703.784,400.074 	"/>
	<polygon fill="#15723B" points="174.584,499.138 118.51,520.899 94.567,600.322 147.71,679.744 234.724,675.657 265.09,618.231 
		223.86,653.466 173.405,648.793 148.294,596.234 157.053,531.996 	"/>
	<polygon fill="#0B4422" points="225.668,378.798 266.989,397.679 225.668,416.562 252.389,397.681 	"/>
	<polygon fill="#0B4422" points="225.668,457.173 287.282,490.387 225.668,519.077 267.719,490.241 	"/>
	<polygon fill="#15723B" points="265.781,348.823 308.89,385.027 308.89,414.809 283.389,435.638 328.162,466.006 328.162,520.703 
		232.441,572.632 304.024,514.86 308.89,475.538 259.445,436.996 293.706,410.327 296.432,387.357 	"/>
	<polygon fill="#0B4422" points="390.192,277.558 390.192,440.632 458.938,360.373 373.713,483.525 	"/>
	<polygon fill="#0B4422" points="424.1,485.413 390.192,520.93 390.192,572.632 373.713,514.405 	"/>
	<polygon fill="#15723B" points="547.147,361.206 470.449,440.535 547.222,572.312 443.791,439.53 	"/>
	<polygon fill="#0B4422" points="578.109,361.206 578.109,572.271 683.704,615.507 596.795,557.886 	"/>
	<polygon fill="#15723B" points="647.69,385.809 647.69,520.456 716.648,582.858 625.066,529.854 	"/>
	<polygon fill="#0B4422" points="763.816,463.337 748.633,479.437 788.928,528.199 950.14,554.019 959.744,548.932 957.408,536.96 
		799.439,513.892 772.284,484.333 801.775,501.921 958.794,526.448 965,518.271 958.202,508.126 807.031,486.444 	"/>
	<g>
		<path fill="#0B4422" d="M904.767,407.833c0-35.226-27.756-63.783-61.991-63.783c-34.244,0-61.999,28.558-61.999,63.783
			c0,35.225,27.755,63.779,61.999,63.779C877.011,471.612,904.767,443.058,904.767,407.833z"/>
		<path fill="#EAD227" d="M888.094,407.833c0-25.751-20.293-46.627-45.318-46.627c-25.031,0-45.328,20.876-45.328,46.627
			c0,25.75,20.297,46.624,45.328,46.624C867.801,454.457,888.094,433.583,888.094,407.833z"/>
		<path d="M863.063,407.833c0-11.534-9.086-20.882-20.287-20.882c-11.207,0-20.299,9.348-20.299,20.882
			c0,11.532,9.092,20.878,20.299,20.878C853.977,428.711,863.063,419.365,863.063,407.833z"/>
	</g>
</g>
</svg>
