<?xml version="1.0" encoding="utf-8"?>
<!-- Generator: Adobe Illustrator 16.0.0, SVG Export Plug-In . SVG Version: 6.00 Build 0)  -->
<!DOCTYPE svg PUBLIC "-//W3C//DTD SVG 1.1//EN" "http://www.w3.org/Graphics/SVG/1.1/DTD/svg11.dtd">
<svg version="1.1" id="katman_1" xmlns="http://www.w3.org/2000/svg" xmlns:xlink="http://www.w3.org/1999/xlink" x="0px" y="0px"
	 width="5000px" height="5000px" viewBox="0 0 5000 5000" enable-background="new 0 0 5000 5000" xml:space="preserve">
<g>
	<g>
		<path fill="#E20613" d="M3447.383,870.487l87.355-82.35c-62.093-37.612-126.396-71.941-192.669-102.747L3447.383,870.487z"/>
		<path fill="#E20613" d="M3938.059,1110.045l-5.9,50.114l65.227,13.977C3978.073,1152.342,3958.292,1130.974,3938.059,1110.045z"/>
		<path fill="#E20613" d="M4382.383,1822.651l-388.592,102.938C4062.392,2103.876,4100,2297.545,4100,2500
			c0,369.742-125.419,710.189-336.031,981.127L1518.874,1236.031C1789.811,1025.419,2130.258,900,2500,900
			c181.68,0,356.283,30.287,519.047,86.078l128.823-378.802C2944.684,537.743,2726.75,500,2500,500
			c-1104.569,0-2000,895.431-2000,2000s895.431,2000,2000,2000s2000-895.432,2000-2000
			C4500,2262.246,4458.511,2034.183,4382.383,1822.651z M2500,4100c-883.655,0-1600-716.346-1600-1600
			c0-369.742,125.419-710.19,336.03-981.126L3481.127,3763.97C3210.189,3974.581,2869.742,4100,2500,4100z"/>
		<path fill="#E20613" d="M4183.727,1420.176l-153.912,141.348l328.826,198.511
			C4311.072,1640.658,4252.34,1526.94,4183.727,1420.176z"/>
	</g>
	<g>
		<polygon points="2967.135,2295.478 3107.658,2154.953 2774.627,1821.922 2634.104,1962.446 2520.404,1848.748 2396.708,1972.444 
			2957.137,2532.874 3080.834,2409.177 		"/>
		<polygon points="1972.443,2396.708 1213.098,3156.055 1773.527,3716.483 1921.549,3568.462 2341.268,3988.181 2581.304,3748.145 
			2161.585,3328.426 2299.664,3190.347 2719.383,3610.065 2871.545,3457.903 2451.827,3038.185 2532.873,2957.138 		"/>
	</g>
	<polygon fill="#FFEC00" points="2774.627,1821.922 2774.627,1096.01 3044.985,1220.394 3226.962,685.296 3423.391,1030.534 
		3899.581,581.632 3822.2,1238.867 4155.533,1310.296 3863.867,1578.152 4184.391,1771.65 3638.911,1916.147 3703.684,2166.56 
		3107.658,2154.953 	"/>
</g>
</svg>
