<?xml version="1.0" encoding="utf-8"?>
<!-- Generator: Adobe Illustrator 16.0.0, SVG Export Plug-In . SVG Version: 6.00 Build 0)  -->
<!DOCTYPE svg PUBLIC "-//W3C//DTD SVG 1.1//EN" "http://www.w3.org/Graphics/SVG/1.1/DTD/svg11.dtd">
<svg version="1.1" id="katman_1" xmlns="http://www.w3.org/2000/svg" xmlns:xlink="http://www.w3.org/1999/xlink" x="0px" y="0px"
	 width="5000px" height="5000px" viewBox="0 0 5000 5000" enable-background="new 0 0 5000 5000" xml:space="preserve">
<g>
	<g>
		<path fill-rule="evenodd" clip-rule="evenodd" fill="#E20613" d="M1809.399,3198.725c0,0-550.431-390.355-694.126-491.955
			c-68.439,68.213-134.304,133.861-204.361,203.693c131.718,131.65,266.656,266.52,402.271,402.063
			c-9.528,11.748-19.825,24.131-29.784,36.775c-60.028,76.25-119.737,152.756-180.021,228.807
			c-72.47,91.42-146.273,181.813-217.64,274.068c-19.396-3.6-39.388-5.5-59.826-5.5c-179.997,0-325.912,145.916-325.912,325.912
			c0,179.998,145.915,325.914,325.912,325.914c179.996,0,325.912-145.916,325.912-325.914c0-13.291-0.815-26.391-2.362-39.266
			c40.14-31.543,81.052-62.143,121.14-93.766c89.938-70.945,179.323-142.586,269.057-213.795
			c54.27-43.063,108.758-85.859,168.318-132.857c136.281,136.416,271.083,271.348,404.212,404.605
			c64.132-64.117,129.873-129.877,196.231-196.221L1809.399,3198.725z"/>
		<path fill-rule="evenodd" clip-rule="evenodd" fill="#E20613" d="M4153.438,1434.279c-11.14,32.251-36.744,62.143-62.128,86.35
			c-78.044,74.421-159.124,145.67-239.214,217.942c-127.537,115.087-255.404,229.815-382.774,345.089
			c-63.323,57.312-125.907,115.439-188.731,173.293c-129.379,119.141-258.51,238.543-388.098,357.454
			c-83.21,76.357-167.172,151.891-250.588,228.025c-118.69,108.336-236.965,217.127-355.852,325.242
			c-59.378,53.994-119.729,106.928-182.733,163.102c-38.87-59.031-169.405-262.373-169.405-262.373s-197.204-123.77-256.033-161.5
			c30.422-34.607,59.237-68.719,89.475-101.52c69.029-74.889,139.19-148.736,208.098-223.738
			c106.157-115.539,211.712-231.629,317.401-347.596c76.076-83.467,151.817-167.241,227.962-250.646
			c109.204-119.615,218.746-238.914,327.934-358.535c75.285-82.48,150.096-165.387,225.337-247.908
			c107.419-117.814,215.271-235.236,322.429-353.285c32.76-36.088,63.248-74.228,95.904-110.413
			c26.04-28.856,55.461-49.709,95.008-62.521L4500,501.499L4153.438,1434.279z"/>
	</g>
	<g>
		<path fill-rule="evenodd" clip-rule="evenodd" fill="#35A8E0" d="M3190.6,3198.725c0,0,550.432-390.355,694.126-491.955
			c68.44,68.213,134.306,133.861,204.362,203.693c-131.719,131.65-266.656,266.52-402.27,402.063
			c9.528,11.748,19.824,24.131,29.783,36.775c60.027,76.25,119.736,152.756,180.021,228.807
			c72.47,91.42,146.272,181.813,217.641,274.068c19.395-3.6,39.386-5.5,59.826-5.5c179.995,0,325.911,145.916,325.911,325.912
			c0,179.998-145.916,325.914-325.911,325.914c-179.997,0-325.913-145.916-325.913-325.914c0-13.291,0.814-26.391,2.361-39.266
			c-40.139-31.543-81.051-62.143-121.139-93.766c-89.938-70.945-179.324-142.586-269.057-213.795
			c-54.271-43.063-108.758-85.859-168.318-132.857c-136.281,136.416-271.084,271.348-404.211,404.605
			c-64.133-64.117-129.873-129.877-196.232-196.221L3190.6,3198.725z"/>
		<g>
			<path fill-rule="evenodd" clip-rule="evenodd" fill="#35A8E0" d="M1719.41,2256.953
				c74.054,68.195,148.033,136.467,222.058,204.691c72.163-78.753,144.627-158.296,215.102-235.656
				c19.27-21.153,38.54-42.306,57.814-63.456c34.451-37.797,69.439-76.326,103.275-113.585
				c36.165-39.825,73.42-80.848,110.434-121.438c-92.259-100.903-184.671-201.663-276.843-302.642
				c-75.285-82.48-150.096-165.387-225.337-247.908c-107.418-117.814-215.271-235.236-322.429-353.285
				c-32.76-36.088-63.249-74.228-95.904-110.413c-26.04-28.856-55.461-49.709-95.007-62.521L500,501.499l346.563,932.78
				c11.139,32.251,36.745,62.143,62.128,86.35c78.043,74.421,159.124,145.67,239.215,217.942
				c127.536,115.087,255.403,229.815,382.772,345.089C1594,2140.971,1656.585,2199.099,1719.41,2256.953z"/>
			<path fill-rule="evenodd" clip-rule="evenodd" fill="#35A8E0" d="M3052.306,2611.73c-29.373,27.029-58.772,54.055-88.031,80.902
				c-48.362,44.377-97.677,89.115-145.368,132.379c-34.605,31.395-70.389,63.857-105.428,95.838
				c-44.938,41.018-90.531,82.756-134.857,123.34c45.059,41.217,90.147,82.398,135.326,123.484
				c59.378,53.994,119.729,106.928,182.732,163.102c38.872-59.031,169.405-262.373,169.405-262.373s197.204-123.77,256.033-161.5
				c-30.423-34.607-59.237-68.719-89.474-101.52C3172.864,2740.527,3112.236,2676.449,3052.306,2611.73z"/>
		</g>
	</g>
</g>
</svg>
